<?xml version="1.0" encoding="UTF-8"?>
<svg version="1.1" xmlns="http://www.w3.org/2000/svg" viewBox="0 0 512 512" >

<path d="M0 0 C168.96 0 337.92 0 512 0 C512 168.96 512 337.92 512 512 C343.04 512 174.08 512 0 512 C0 343.04 0 174.08 0 0 Z " fill="#C38B6C" transform="translate(0,0)"/>
<path d="M0 0 C6.6 0 13.2 0 20 0 C21.65 0.33 23.3 0.66 25 1 C25 1.66 25 2.32 25 3 C25.99 3 26.98 3 28 3 C28 3.66 28 4.32 28 5
 C28.66 5 29.32 5 30 5 C32.16511767 29.81784541 32.16511767 29.81784541 31.8984375 38.1875 C31.52484339 43.16875474 30.86636111 48.08173464 30 53
 C33.3 53 36.6 53 40 53 C41.505625 53.309375 43.01125 53.61875 44.5625 53.9375 C48.69897135 54.76714788 52.81740839 55.45444457 57 56
 C57 56.66 57 57.32 57 58 C58.65 58 60.3 58 62 58 C62 58.66 62 59.32 62 60 C63.65 60.33 65.3 60.66 67 61 C71.455 62.98 71.455 62.98 76 65
 C77.65 65.33 79.3 65.66 81 66 C87.6 66 94.2 66 101 66 C101 65.34 101 64.68 101 64 C104.63 61.69 108.26 59.38 112 57
 C113.32 56.67 114.64 56.34 116 56 C116 55.34 116 54.68 116 54 C119.465 53.505 119.465 53.505 123 53 C123.33 50.03 123.66 47.06 124 44
 C124.66 44 125.32 44 126 44 C126 43.34 126 42.68 126 42 C128.475 40.515 128.475 40.515 131 39 C132.32 39 133.64 39 135 39
 C135 40.65 135 42.3 135 44 C135.99 44 136.98 44 138 44 C138 44.66 138 45.32 138 46 C139.98 46 141.96 46 144 46
 C144.33 46.33 144.66 46.66 145 47 C145 49.31 145 51.62 145 54 C144.67 54.33 144.34 54.66 144 55 C140.37 55.33 136.74 55.66 133 56
 C133 56.66 133 57.32 133 58 C131.35 58.66 129.7 59.32 128 60 C128 60.99 128 61.98 128 63 C127.01 63.33 126.02 63.66 125 64
 C123.68 66.31 122.36 68.62 121 71 C120.01 71.99 119.02 72.98 118 74 C117.34 74 116.68 74 116 74 C116 74.66 116 75.32 116 76
 C115.34 76 114.68 76 114 76 C113.67 77.32 113.34 78.64 113 80 C110.03 81.485 110.03 81.485 107 83 C106.67 83.66 106.34 84.32 106 85
 C91.81 85 77.62 85 63 85 C60.36 84.01 57.72 83.02 55 82 C55 81.34 55 80.68 55 80 C53.35 80 51.7 80 50 80 C50.33 80.99 50.66 81.98 51 83
 C51.06058594 84.10859375 51.12117188 85.2171875 51.18359375 86.359375 C51.26802951 87.8229282 51.35267599 89.28646925 51.4375 90.75
 C51.47681641 91.47960937 51.51613281 92.20921875 51.55664062 92.9609375 C51.6757043 94.97586121 51.83639004 96.98820342 52 99
 C52.33 100.32 52.66 101.64 53 103 C53 119.83 53 136.66 53 154 C53.66 154 54.32 154 55 154 C55 155.65 55 157.3 55 159
 C55.66 159 56.32 159 57 159 C57 166.26 57 173.52 57 181 C57.66 181 58.32 181 59 181 C59 191.56 59 202.12 59 213
 C58.34 213 57.68 213 57 213 C57 222.57 57 232.14 57 242 C56.34 242 55.68 242 55 242 C55 242.99 55 243.98 55 245
 C54.34 245 53.68 245 53 245 C52.855625 245.86625 52.71125 246.7325 52.5625 247.625 C52.23670366 249.57977802 51.88565719 251.53135775 51.46875 253.46875
 C50.96018141 256.84264645 50.96018141 256.84264645 50.91967773 259.63818359 C50.90175892 262.71769667 50.91284914 265.79553832 50.9375 268.875
 C50.94201172 269.94492187 50.94652344 271.01484375 50.95117188 272.1171875 C50.96290236 274.74481589 50.98083609 277.37241531 51 280
 C49.35 284.62 47.7 289.24 46 294 C46 303.24 46 312.48 46 322 C46.33 322.33 46.66 322.66 47 323 C47 326.3 47 329.6 47 333
 C47.99 333.99 48.98 334.98 50 336 C50 336.66 50 337.32 50 338 C50.66 338 51.32 338 52 338 C52 336.68 52 335.36 52 334
 C52.99 334 53.98 334 55 334 C55.66 334.66 56.32 335.32 57 336 C58.32 335.67 59.64 335.34 61 335 C61.33 334.34 61.66 333.68 62 333
 C62.99 333 63.98 333 65 333 C65.66 333.66 66.32 334.32 67 335 C67.66 334.67 68.32 334.34 69 334 C71.31 334 73.62 334 76 334
 C76 332.02 76 330.04 76 328 C76.66 328 77.32 328 78 328 C78 328.99 78 329.98 78 331 C78.66 331 79.32 331 80 331
 C80 331.66 80 332.32 80 333 C80.99 333 81.98 333 83 333 C83 332.34 83 331.68 83 331 C83.66 331 84.32 331 85 331
 C85.99 334.465 85.99 334.465 87 338 C87.66 338.33 88.32 338.66 89 339 C89 337.68 89 336.36 89 335 C91.31 334.34 93.62 333.68 96 333
 C99.96 333.33 103.92 333.66 108 334 C108 334.66 108 335.32 108 336 C109.32 336 110.64 336 112 336 C112.99 336.99 113.98 337.98 115 339
 C114.34 337.02 113.68 335.04 113 333 C113.33 324.09 113.66 315.18 114 306 C113.34 306 112.68 306 112 306
 C111.95101562 305.16597656 111.90203125 304.33195312 111.8515625 303.47265625 C111.42693751 296.86354799 111.42693751 296.86354799 110.5234375 290.30859375
 C110.19702658 288.86897545 109.85802111 287.43208443 109.5 286 C108.92123639 283.68494555 108.46799262 281.33996311 108 279
 C108 274.71 108 270.42 108 266 C106.35 265.67 104.7 265.34 103 265 C103 264.34 103 263.68 103 263 C101.68 262.67 100.36 262.34 99 262
 C98.93941406 260.87722656 98.87882813 259.75445312 98.81640625 258.59765625 C98.39705018 251.03659035 97.95660166 243.5161559 97 236
 C96.01 236 95.02 236 94 236 C94 236.66 94 237.32 94 238 C93.34 238 92.68 238 92 238 C92 239.65 92 241.3 92 243
 C90.68 245.31 89.36 247.62 88 250 C87.67 253.96 87.34 257.92 87 262 C85.02 267.94 85.02 267.94 83 274 C79 273 79 273 76 272
 C76 271.01 76 270.02 76 269 C75.34 269 74.68 269 74 269 C74 264.05 74 259.1 74 254 C74.4125 253.13375 74.825 252.2675 75.25 251.375
 C76.3850614 248.75186766 77.25605679 246.15840834 78.08984375 243.41796875 C79.08695104 239.95280031 80.0496264 236.4782709 81 233
 C83.475 228.545 83.475 228.545 86 224 C86.33 221.69 86.66 219.38 87 217 C87.66 217 88.32 217 89 217 C89.20496094 216.37351562 89.40992188 215.74703125 89.62109375 215.1015625
 C90.02521484 213.87566406 90.02521484 213.87566406 90.4375 212.625 C90.70433594 211.81289063 90.97117188 211.00078125 91.24609375 210.1640625
 C91.49488281 209.44992187 91.74367187 208.73578125 92 208 C92.33 207.34 92.66 206.68 93 206 C93.33 202.04 93.66 198.08 94 194
 C94.66 194 95.32 194 96 194 C96 193.01 96 192.02 96 191 C98.475 189.02 98.475 189.02 101 187 C103.475 186.01 103.475 186.01 106 185
 C106.66 183.68 107.32 182.36 108 181 C109.65 181 111.3 181 113 181 C112.01 178.525 112.01 178.525 111 176 C110.67 170.39 110.34 164.78 110 159
 C110.66 159 111.32 159 112 159 C112 157.35 112 155.7 112 154 C112.66 154 113.32 154 114 154 C114.66 152.35 115.32 150.7 116 149
 C118.31 148.01 120.62 147.02 123 146 C129.27 146 135.54 146 142 146 C142.99 146.99 143.98 147.98 145 149 C145 152.3 145 155.6 145 159
 C142.525 159.99 142.525 159.99 140 161 C140 165.29 140 169.58 140 174 C139.34 174 138.68 174 138 174 C138 175.65 138 177.3 138 179
 C137.34 179 136.68 179 136 179 C136.33 180.32 136.66 181.64 137 183 C140.96 184.98 140.96 184.98 145 187 C145.33 187.99 145.66 188.98 146 190
 C149.63 190 153.26 190 157 190 C157.66 189.67 158.32 189.34 159 189 C159.33 188.01 159.66 187.02 160 186 C160.66 186 161.32 186 162 186
 C162.33 184.35 162.66 182.7 163 181 C163.66 181 164.32 181 165 181 C165 179.35 165 177.7 165 176 C165.66 176 166.32 176 167 176
 C166.67 168.74 166.34 161.48 166 154 C167.32 154.33 168.64 154.66 170 155 C171.6744239 155.6469365 173.34302621 156.30959426 175 157
 C175.99 160.465 175.99 160.465 177 164 C177.2127848 168.01926852 177.20711681 171.97949723 177 176 C176.2387513 182.03696733 175.11620515 188.02032958 174 194
 C173.34 194 172.68 194 172 194 C172 194.66 172 195.32 172 196 C171.34 196 170.68 196 170 196 C169.67 196.99 169.34 197.98 169 199 C167.68 199.33 166.36 199.66 165 200
 C165 200.66 165 201.32 165 202 C162.525 202.99 162.525 202.99 160 204 C160 205.32 160 206.64 160 208 C158.68 208 157.36 208 156 208 C156.33 212.29 156.66 216.58 157 221
 C157.33 221.33 157.66 221.66 158 222 C158 230.25 158 238.5 158 247 C157.67 248.32 157.34 249.64 157 251 C157 253.64 157 256.28 157 259 C157.99 261.31 158.98 263.62 160 266
 C160.81878039 271.9225115 161.24823417 277.77873388 161.5 283.75 C161.83984368 291.18399462 162.29216915 298.59036645 163 306 C163.66 306 164.32 306 165 306 C165 316.23 165 326.46 165 337 C166.65 337.33 168.3 337.66 170 338 C170.33 338.99 170.66 339.98 171 341 C171.66 341.33 172.32 341.66 173 342 C173 341.34 173 340.68 173 340
 C173.99 340 174.98 340 176 340 C176 339.01 176 338.02 176 337 C178.97 337.33 181.94 337.66 185 338 C185 338.66 185 339.32 185 340 C186.32 339.34 187.64 338.68 189 338 C191.31 338 193.62 338 196 338 C196.33 337.34 196.66 336.68 197 336 C196.67 338.31 196.34 340.62 196 343 C197.65 343 199.3 343 201 343 C201 343.66 201 344.32 201 345
 C203.97 345 206.94 345 210 345 C210 344.01 210 343.02 210 342 C210.99 341.67 211.98 341.34 213 341 C217.29 341 221.58 341 226 341 C225.34 339.35 224.68 337.7 224 336 C223.99191315 335.43862335 223.98382629 334.8772467 223.97549438 334.29885864 C223.88821602 328.35935995 223.78868971 322.4201491 223.68261719 316.48095703 C223.64475987 314.27592879 223.60983916 312.07084781 223.578125 309.86572266 C223.38304903 296.46034554 222.80827926 283.29117129 221 270 C216.71 269.34 212.42 268.68 208 268 C208 267.34 208 266.68 208 266 C202.52225234 264.41678933 202.52225234 264.41678933 197 263
 C197 261.68 197 260.36 197 259 C197.66 259 198.32 259 199 259 C199 257.35 199 255.7 199 254 C199.66 254 200.32 254 201 254 C201 252.35 201 250.7 201 249 C201.66 249 202.32 249 203 249 C203.33 244.38 203.66 239.76 204 235 C206 230 208 225 210 220 C210.66 220 211.32 220 212 220 C212.33 216.04 212.66 212.08 213 208 C213.33 207.01 213.66 206.02 214 205 C214 197.74 214 190.48 214 183 C213.360625 180.586875 212.72125 178.17375 212.0625 175.6875 C211.86277588 174.93170654 211.66305176 174.17591309 211.45727539 173.3972168 C210.70536934 170.56876216 209.92574837 167.77724512 209 165 C208.01 164.34 207.02 163.68 206 163 C206 161.68 206 160.36 206 159 C205.34 159 204.68 159 204 159 C204 146.79 204 134.58 204 122 C204.66 120.35 205.32 118.7 206 117 C206 111.72 206 106.44 206 101 C206.66 100.34 207.32 99.68 208 99 C209.32 98.67 210.64 98.34 212 98 C212.33 96.35 212.66 94.7 213 93 C213.99 93.33 214.98 93.66 216 94 C216.66 96.64 217.32 99.28 218 102 C218 104.64 218 107.28 218 110
 C217.67 110.66 217.34 111.32 217 112 C216.34 112 215.68 112 215 112 C215 122.89 215 133.78 215 145 C215.99 147.97 216.98 150.94 218 154 C218.33 157.3 218.66 160.6 219 164 C221.31 164.33 223.62 164.66 226 165 C226.33 159.72 226.66 154.44 227 149 C227.66 149 228.32 149 229 149 C229.66 146.03 230.32 143.06 231 140 C233.64 137.03 236.28 134.06 239 131 C242.96 131 246.92 131 251 131 C252.65 131.99 254.3 132.98 256 134 C256.99 137.63 257.98 141.26 259 145 C258.67 146.32 258.34 147.64 258 149 C258.99 149 259.98 149 261 149 C261 149.66 261 150.32 261 151 C261.66 151 262.32 151 263 151 C263 151.99 263 152.98 263 154 C263.66 154 264.32 154 265 154 C266.485 155.485 266.485 155.485 268 157 C270.31 157.66 272.62 158.32 275 159 C276.98 160.32 278.96 161.64 281 163 C281.66 163.99 282.32 164.98 283 166 C283 167.98 283 169.96 283 172 C281.68 174.31 280.36 176.62 279 179 C278.01 179 277.02 179 276 179 C275.34 180.65 274.68 182.3 274 184 C269.05 188.455 269.05 188.455 264 193
 C263.67 193.66 263.34 194.32 263 195 C262.97062562 198.33331439 262.95307666 201.66659483 262.9375 205 C262.92912109 205.93457031 262.92074219 206.86914062 262.91210938 207.83203125 C262.89728756 212.07106959 262.94427009 216.24027863 263.4453125 220.453125 C263.95442397 224.05603246 263.95442397 224.05603246 264.9375 227.75 C265.90022231 230.90785558 265.90022231 230.90785558 267.125 233.4375 C267.558125 234.2109375 267.558125 234.2109375 268 235 C268.66 235 269.32 235 270 235 C270 239.95 270 244.9 270 250 C270.66 250 271.32 250 272 250 C272.66 253.3 273.32 256.6 274 260 C274.33 260.33 274.66 260.66 275 261 C275 263.64 275 266.28 275 269 C273.35 269.99 271.7 270.98 270 272 C268.35 272 266.7 272 265 272 C265 272.66 265 273.32 265 274 C264.34 274 263.68 274 263 274 C262.67 276.97 262.34 279.94 262 283 C261.67 283.33 261.34 283.66 261 284 C261 299.51 261 315.02 261 331 C261.66 332.65 262.32 334.3 263 336 C263 337.32 263 338.64 263 340
 C263.66 340 264.32 340 265 340 C265.33 341.65 265.66 343.3 266 345 C268.64 344.67 271.28 344.34 274 344 C276.31 344.33 278.62 344.66 281 345 C281 344.34 281 343.68 281 343 C281.66 343 282.32 343 283 343 C283 342.01 283 341.02 283 340 C283.66 340 284.32 340 285 340 C285 340.66 285 341.32 285 342 C286.134375 341.855625 287.26875 341.71125 288.4375 341.5625 C292.95369891 340.99696525 297.47554835 340.4948619 302 340 C302 343.3 302 346.6 302 350 C303.98 349.67 305.96 349.34 308 349 C311.63 349.33 315.26 349.66 319 350 C319.33 346.04 319.66 342.08 320 338 C321.32 338 322.64 338 324 338 C324.33 337.34 324.66 336.68 325 336 C325.66 337.65 326.32 339.3 327 341 C327 342.32 327 343.64 327 345 C327.66 345 328.32 345 329 345 C329 344.34 329 343.68 329 343 C329.66 342.67 330.32 342.34 331 342 C331.33 340.68 331.66 339.36 332 338 C333.32 338 334.64 338 336 338 C335.63174151 329.9911787 335.63174151 329.9911787 335 322 C334.58825017 319.62400099 334.06816775 317.33161002 333.4765625 314.99609375 C332.96981413 312.87356576 332.64143003 310.79069554 332.375 308.625 C331.85015823 303.42262103 331.91214116 298.22271994 332 293
 C331.67 292.34 331.34 291.68 331 291 C331 280.11 331 269.22 331 258 C329.68 258 328.36 258 327 258 C326.16457674 249.0170369 325.81362617 240.08018876 325.81469727 231.06152344 C325.81250186 229.00174531 325.79422622 226.9424974 325.77539062 224.8828125 C325.75892099 220.91579352 325.81499064 216.9638003 326 213 C326.41323017 209.60656675 326.93689966 206.25685503 327.52124023 202.88916016 C328.16665901 198.99426682 328.43870561 195.12685004 328.625 191.1875 C328.66367187 190.48302734 328.70234375 189.77855469 328.7421875 189.05273438 C328.83383071 187.3687904 328.91783254 185.68443293 329 184 C329.66 182.35 330.32 180.7 331 179 C331.66 179 332.32 179 333 179 C333.06058594 178.31035156 333.12117188 177.62070312 333.18359375 176.91015625 C333.71678217 170.93024304 334.31555093 164.96448472 335 159 C334.34 158.34 333.68 157.68 333 157 C331.68 156.67 330.36 156.34 329 156 C329 155.34 329 154.68 329 154 C327.35 154 325.7 154 324 154 C324 154.66 324 155.32 324 156 C322.35 156.33 320.7 156.66 319 157 C319 153.7 319 150.4 319 147 C319.33 145.35 319.66 143.7 320 142 C320.66 142 321.32 142 322 142
 C322.66 140.02 323.32 138.04 324 136 C325.485 133.525 325.485 133.525 327 131 C327.33 130.01 327.66 129.02 328 128 C328.04898437 127.2265625 328.09796875 126.453125 328.1484375 125.65625 C328.38014532 122.42832039 328.64302878 119.21666376 329 116 C329.54154557 113.27160247 330.22819887 110.67557724 331 108 C328.69 107.67 326.38 107.34 324 107 C324 106.34 324 105.68 324 105 C322.35 104.67 320.7 104.34 319 104 C318.34 103.67 317.68 103.34 317 103 C317 102.34 317 101.68 317 101 C315.35 101 313.7 101 312 101 C307.05 98.03 307.05 98.03 302 95 C302 94.34 302 93.68 302 93 C301.01 92.67 300.02 92.34 299 92 C299 91.34 299 90.68 299 90 C298.34 90 297.68 90 297 90 C297 89.34 297 88.68 297 88 C295.68 87.34 294.36 86.68 293 86 C292.67 85.01 292.34 84.02 292 83 C291.34 83 290.68 83 290 83 C289.01 81.68 288.02 80.36 287 79 C285.68 78.67 284.36 78.34 283 78 C283 77.34 283 76.68 283 76 C281.35 75.34 279.7 74.68 278 74 C276.515 71.525 276.515 71.525 275 69 C274.34 68.67 273.68 68.34 273 68 C272.34 65.03 271.68 62.06 271 59 C269.68 58.34 268.36 57.68 267 57 C266.01 56.67 265.02 56.34 264 56
 C263.67 54.35 263.34 52.7 263 51 C261.68 51 260.36 51 259 51 C258.67 49.02 258.34 47.04 258 45 C259.65 44.01 261.3 43.02 263 42 C263.66 42 264.32 42 265 42 C265 42.66 265 43.32 265 44 C265.66 44 266.32 44 267 44 C267.33 45.65 267.66 47.3 268 49 C268.66 49 269.32 49 270 49 C270 50.65 270 52.3 270 54 C270.99 54.33 271.98 54.66 273 55 C273 55.66 273 56.32 273 57 C274.32 57.33 275.64 57.66 277 58 C278.98 59.32 280.96 60.64 283 62 C283.66 62.99 284.32 63.98 285 65 C288.3 66.32 291.6 67.64 295 69 C295 69.66 295 70.32 295 71 C295.66 71 296.32 71 297 71 C297 71.66 297 72.32 297 73 C299.31 73.33 301.62 73.66 304 74 C304 74.66 304 75.32 304 76 C304.66 76 305.32 76 306 76 C306.33 77.32 306.66 78.64 307 80 C308.31077107 80.710001 309.6534734 81.36039986 311 82 C313.6537765 83.03821409 316.32422283 84.0188817 319 85 C319.99 85.66 320.98 86.32 322 87 C322 87.66 322 88.32 322 89 C325.63 89.33 329.26 89.66 333 90 C333.33 90.33 333.66 90.66 334 91 C336.97 91.33 339.94 91.66 343 92 C343.33 92.66 343.66 93.32 344 94 C350.93 94.495 350.93 94.495 358 95 C358 92.69 358 90.38 358 88
 C356.02 88 354.04 88 352 88 C352 87.34 352 86.68 352 86 C351.01 86 350.02 86 349 86 C348.67 81.05 348.34 76.1 348 71 C348.33 70.34 348.66 69.68 349 69 C349.66 69 350.32 69 351 69 C351 65.37 351 61.74 351 58 C351.33 57.34 351.66 56.68 352 56 C352.66 56 353.32 56 354 56 C354 55.34 354 54.68 354 54 C355.32 53.67 356.64 53.34 358 53 C358.33 51.68 358.66 50.36 359 49 C366.26 49 373.52 49 381 49 C381 49.66 381 50.32 381 51 C381.66 51 382.32 51 383 51 C383 51.66 383 52.32 383 53 C384.32 53.66 385.64 54.32 387 55 C387.33 55.99 387.66 56.98 388 58 C388.66 58 389.32 58 390 58 C390.33 70.21 390.66 82.42 391 95 C391.66 95 392.32 95 393 95 C393 95.99 393 96.98 393 98 C393.66 98 394.32 98 395 98 C395.66 99.65 396.32 101.3 397 103 C397.99 103 398.98 103 400 103 C400 103.66 400 104.32 400 105 C400.66 105 401.32 105 402 105 C402 106.65 402 108.3 402 110 C401.34 110 400.68 110 400 110 C400 111.65 400 113.3 400 115 C400.66 115 401.32 115 402 115 C402.07516846 115.92727905 402.07516846 115.92727905 402.15185547 116.87329102 C403.1415572 128.96403497 404.21763243 140.99746095 406 153 C406.33 153.33 406.66 153.66 407 154 C407 166.87 407 179.74 407 193 C406.01 197.95 405.02 202.9 404 208 C403.34 209.65 402.68 211.3 402 213
 C401.34 213 400.68 213 400 213 C399.87625 213.680625 399.7525 214.36125 399.625 215.0625 C398.90899123 218.4277412 397.97054875 221.70013425 397 225 C396.34 225 395.68 225 395 225 C395 225.66 395 226.32 395 227 C392.03 227 389.06 227 386 227 C385.67 226.67 385.34 226.34 385 226 C385 223.03 385 220.06 385 217 C385.66 217 386.32 217 387 217 C387.33 214.69 387.66 212.38 388 210 C388.66 210 389.32 210 390 210 C390 207.69 390 205.38 390 203 C390.66 203 391.32 203 392 203 C392 200.69 392 198.38 392 196 C392.66 195.67 393.32 195.34 394 195 C394.33 192.69 394.66 190.38 395 188 C395.66 188 396.32 188 397 188 C397 179.75 397 171.5 397 163 C396.34 161.68 395.68 160.36 395 159 C395 157.35 395 155.7 395 154 C394.34 154 393.68 154 393 154 C392.67 151.69 392.34 149.38 392 147 C391.34 147 390.68 147 390 147 C390 146.01 390 145.02 390 144 C389.01 144.33 388.02 144.66 387 145 C386.34 146.98 385.68 148.96 385 151 C384.67 158.59 384.34 166.18 384 174 C384.66 174 385.32 174 386 174 C386 174.66 386 175.32 386 176 C386.66 176 387.32 176 388 176 C388.33 178.31 388.66 180.62 389 183 C388.01 183 387.02 183 386 183 C385.67 184.65 385.34 186.3 385 188 C384.34 188 383.68 188 383 188 C383 191.96 383 195.92 383 200 C382.67 201.65 382.34 203.3 382 205
 C381.88414887 206.46646998 381.80216701 207.93600288 381.75390625 209.40625 C381.72232422 210.22609375 381.69074219 211.0459375 381.65820312 211.890625 C381.62662109 212.75171875 381.59503906 213.6128125 381.5625 214.5 C381.31118544 220.39524315 380.95548866 226.16798035 380 232 C379.74089844 233.49080078 379.74089844 233.49080078 379.4765625 235.01171875 C378.68423571 239.97999736 378.34346649 244.98358153 378 250 C375 253 372 256 369 259 C369 263.95 369 268.9 369 274 C369.66 274.99 370.32 275.98 371 277 C371.92062708 281.78397286 372.79629202 286.56725665 373.203125 291.42578125 C373.25595563 293.97485916 373.18125153 296.45550738 373 299 C372.58952859 302.31915677 372.15638053 305.63439747 371.71630859 308.94970703 C371.07527776 314.20615986 370.87354672 319.38985955 370.859375 324.68432617 C370.88166554 328.79031339 370.92776354 332.89456103 371 337 C371.66 337.66 372.32 338.32 373 339 C373.99 338.67 374.98 338.34 376 338 C376 337.01 376 336.02 376 335 C376.99 335 377.98 335 379 335 C379 334.34 379 333.68 379 333 C379.66 333 380.32 333 381 333 C381 333.99 381 334.98 381 336 C383.97 334.515 383.97 334.515 387 333 C387.99 333 388.98 333 390 333 C390.33 332.34 390.66 331.68 391 331 C391 331.66 391 332.32 391 333
 C392.32 333 393.64 333 395 333 C395 331.35 395 329.7 395 328 C397.84396515 330.22905376 400.43855205 332.43855205 403 335 C406.63 335 410.26 335 414 335 C414.33 335.66 414.66 336.32 415 337 C417.97 337.33 420.94 337.66 424 338 C424.99 338.33 425.98 338.66 427 339 C427 338.01 427 337.02 427 336 C428.98 335.67 430.96 335.34 433 335 C433.66 333.02 434.32 331.04 435 329 C435.33 329.99 435.66 330.98 436 332 C437.32 332.33 438.64 332.66 440 333 C440 333.99 440 334.98 440 336 C440.66 336 441.32 336 442 336 C442 335.34 442 334.68 442 334 C443.65 333.34 445.3 332.68 447 332 C448.32 332 449.64 332 451 332 C451 354.77 451 377.54 451 401 C282.04 401 113.08 401 -61 401 C-61 382.52 -61 364.04 -61 345 C-59.68 344.34 -58.36 343.68 -57 343 C-57 343.66 -57 344.32 -57 345 C-56.01 345 -55.02 345 -54 345 C-54 344.34 -54 343.68 -54 343 C-53.34 343 -52.68 343 -52 343 C-52 343.66 -52 344.32 -52 345 C-51.34 345 -50.68 345 -50 345 C-50 344.01 -50 343.02 -50 342 C-48.68 342 -47.36 342 -46 342 C-45.67 343.65 -45.34 345.3 -45 347 C-44.34 347 -43.68 347 -43 347 C-43 344.69 -43 342.38 -43 340 C-42.34 340 -41.68 340 -41 340 C-40.67 338.68 -40.34 337.36 -40 336 C-39.34 337.98 -38.68 339.96 -38 342 C-37.34 342 -36.68 342 -36 342
 C-35.34 342.66 -34.68 343.32 -34 344 C-33.01 344.33 -32.02 344.66 -31 345 C-30.34 344.34 -29.68 343.68 -29 343 C-29 345.31 -29 347.62 -29 350 C-28.01 350 -27.02 350 -26 350 C-26 348.02 -26 346.04 -26 344 C-24.68 342.02 -23.36 340.04 -22 338 C-19.36 338 -16.72 338 -14 338 C-14.33 339.32 -14.66 340.64 -15 342 C-14.01 342.33 -13.02 342.66 -12 343 C-12 343.66 -12 344.32 -12 345 C-11.34 345 -10.68 345 -10 345 C-9.01 346.98 -9.01 346.98 -8 349 C-7.34 347.35 -6.68 345.7 -6 344 C-5.34 343.67 -4.68 343.34 -4 343 C-3.67 344.65 -3.34 346.3 -3 348 C-2.01 347.67 -1.02 347.34 0 347 C0.33 344.03 0.66 341.06 1 338 C0.34 338 -0.32 338 -1 338 C-1 335.69 -1 333.38 -1 331 C-1.99 331 -2.98 331 -4 331 C-5.16248742 316.09737186 -4.9304834 301.30820682 -4.5625 286.375 C-4.50912771 284.00001425 -4.45638911 281.62501417 -4.40429688 279.25 C-4.27682063 273.4998147 -4.14158322 267.74985437 -4 262 C-5.28383934 257.34625408 -5.28383934 257.34625408 -6.8515625 252.78515625 C-7.10679688 252.21667969 -7.36203125 251.64820313 -7.625 251.0625 C-8.305625 249.5465625 -8.305625 249.5465625 -9 248 C-9.87796777 243.01874543 -10.58907761 238.041283 -11 233 C-11.31955197 225.19280497 -11.19063683 217.37390153 -11.125 209.5625
 C-11.11494395 207.46289492 -11.10582277 205.36328515 -11.09765625 203.26367188 C-11.07586496 198.17566299 -11.04148166 193.08788488 -11 188 C-11.66 188 -12.32 188 -13 188 C-13.04898438 187.38253906 -13.09796875 186.76507813 -13.1484375 186.12890625 C-13.22320312 185.28199219 -13.29796875 184.43507813 -13.375 183.5625 C-13.44460937 182.73878906 -13.51421875 181.91507813 -13.5859375 181.06640625 C-14.13483501 177.00145769 -15.11018587 173.00416359 -16 169 C-16 161.41 -16 153.82 -16 146 C-15.34 146 -14.68 146 -14 146 C-14.020625 144.72125 -14.04125 143.4425 -14.0625 142.125 C-14.07058755 137.03792983 -13.59020789 132.0483853 -13 127 C-13.99 126.67 -14.98 126.34 -16 126 C-16.99 122.37 -17.98 118.74 -19 115 C-20.32 115 -21.64 115 -23 115 C-23.66 117.97 -24.32 120.94 -25 124 C-25.33 124.66 -25.66 125.32 -26 126 C-26.33 128.97 -26.66 131.94 -27 135 C-27.33 135.66 -27.66 136.32 -28 137 C-28.13277344 137.80824219 -28.26554687 138.61648437 -28.40234375 139.44921875 C-28.57894531 140.51785156 -28.75554688 141.58648437 -28.9375 142.6875 C-29.11152344 143.74324219 -29.28554688 144.79898438 -29.46484375 145.88671875 C-29.93167121 148.60249604 -30.44422616 151.30124235 -31 154
 C-31.66 154 -32.32 154 -33 154 C-33 166.87 -33 179.74 -33 193 C-32.34 193.33 -31.68 193.66 -31 194 C-31 196.64 -31 199.28 -31 202 C-31.99 202 -32.98 202 -34 202 C-34.165 203.258125 -34.33 204.51625 -34.5 205.8125 C-34.63921875 206.87404297 -34.63921875 206.87404297 -34.78125 207.95703125 C-35.053233 210.15471706 -35.053233 210.15471706 -35 213 C-36.32 212.67 -37.64 212.34 -39 212 C-40.98 208.535 -40.98 208.535 -43 205 C-43.495 192.13 -43.495 192.13 -44 179 C-44.66 179 -45.32 179 -46 179 C-46 167.78 -46 156.56 -46 145 C-45.34 143.35 -44.68 141.7 -44 140 C-43.67 137.03 -43.34 134.06 -43 131 C-42.67 130.67 -42.34 130.34 -42 130 C-41.67 124.06 -41.34 118.12 -41 112 C-40.34 110.68 -39.68 109.36 -39 108 C-39 101.4 -39 94.8 -39 88 C-38.67 86.35 -38.34 84.7 -38 83 C-37.34 83 -36.68 83 -36 83 C-36 81.35 -36 79.7 -36 78 C-35.34 78 -34.68 78 -34 78 C-33.34 76.68 -32.68 75.36 -32 74 C-29.48641528 71.41459857 -26.97457299 68.97909334 -24.1875 66.6875 C-23.465625 66.130625 -22.74375 65.57375 -22 65 C-21.34 65 -20.68 65 -20 65 C-19.67 63.68 -19.34 62.36 -19 61 C-16.69 60.01 -14.38 59.02 -12 58 C-11.01 58 -10.02 58 -9 58 C-8.34 56.68 -7.68 55.36 -7 54
 C-6.01 53.67 -5.02 53.34 -4 53 C-4 52.34 -4 51.68 -4 51 C-3.34 51 -2.68 51 -2 51 C-2 48.69 -2 46.38 -2 44 C-2.66 44 -3.32 44 -4 44 C-4 42.35 -4 40.7 -4 39 C-4.66 39 -5.32 39 -6 39 C-6.495 35.04 -6.495 35.04 -7 31 C-7.66 31 -8.32 31 -9 31 C-9.66 29.35 -10.32 27.7 -11 26 C-11 20.06 -11 14.12 -11 8 C-10.01 7.67 -9.02 7.34 -8 7 C-7.34 5.35 -6.68 3.7 -6 2 C-4.02 1.34 -2.04 0.68 0 0 Z "
 fill="#352319" transform="translate(61,111)"/>
</svg>
